<?xml version="1.0" encoding="UTF-8" standalone="no"?>
<!DOCTYPE svg PUBLIC "-//W3C//DTD SVG 1.1//EN"
 "http://www.w3.org/Graphics/SVG/1.1/DTD/svg11.dtd">
<!-- Generated by graphviz version 14.0.1 (20251006.0113)
 -->
<!-- Title: StandardAttention Pages: 1 -->
<svg width="738pt" height="246pt"
 viewBox="0.00 0.00 738.00 246.00" xmlns="http://www.w3.org/2000/svg" xmlns:xlink="http://www.w3.org/1999/xlink">
<g id="graph0" class="graph" transform="scale(1 1) rotate(0) translate(4 242.25)">
<title>StandardAttention</title>
<polygon fill="white" stroke="none" points="-4,4 -4,-242.25 734,-242.25 734,4 -4,4"/>
<text xml:space="preserve" text-anchor="middle" x="365" y="-220.95" font-family="Helvetica,sans-Serif" font-weight="bold" font-size="14.00">Standard Attention (Without Fusion)</text>
<g id="clust1" class="cluster">
<title>cluster_hbm</title>
<path fill="#d4edda" stroke="#388e3c" d="M20,-8C20,-8 710,-8 710,-8 716,-8 722,-14 722,-20 722,-20 722,-82 722,-82 722,-88 716,-94 710,-94 710,-94 20,-94 20,-94 14,-94 8,-88 8,-82 8,-82 8,-20 8,-20 8,-14 14,-8 20,-8"/>
<text xml:space="preserve" text-anchor="middle" x="365" y="-13.55" font-family="Helvetica,sans-Serif" font-weight="bold" font-size="11.00" fill="#388e3c">HBM (Device Memory)</text>
</g>
<g id="clust3" class="cluster">
<title>cluster_onchip</title>
<path fill="#fff9c4" stroke="#f9a825" d="M144,-121.25C144,-121.25 564,-121.25 564,-121.25 570,-121.25 576,-127.25 576,-133.25 576,-133.25 576,-195.25 576,-195.25 576,-201.25 570,-207.25 564,-207.25 564,-207.25 144,-207.25 144,-207.25 138,-207.25 132,-201.25 132,-195.25 132,-195.25 132,-133.25 132,-133.25 132,-127.25 138,-121.25 144,-121.25"/>
<text xml:space="preserve" text-anchor="middle" x="354" y="-126.8" font-family="Helvetica,sans-Serif" font-weight="bold" font-size="11.00" fill="#f57f17">On&#45;Chip (SRAM)</text>
</g>
<!-- Q -->
<g id="node1" class="node">
<title>Q</title>
<path fill="#a8d5ba" stroke="black" d="M65,-79C65,-79 35,-79 35,-79 29,-79 23,-73 23,-67 23,-67 23,-55 23,-55 23,-49 29,-43 35,-43 35,-43 65,-43 65,-43 71,-43 77,-49 77,-55 77,-55 77,-67 77,-67 77,-73 71,-79 65,-79"/>
<text xml:space="preserve" text-anchor="middle" x="50" y="-56.55" font-family="Helvetica,sans-Serif" font-size="11.00">Q</text>
</g>
<!-- K -->
<g id="node2" class="node">
<title>K</title>
<path fill="#a8d5ba" stroke="black" d="M191,-79C191,-79 161,-79 161,-79 155,-79 149,-73 149,-67 149,-67 149,-55 149,-55 149,-49 155,-43 161,-43 161,-43 191,-43 191,-43 197,-43 203,-49 203,-55 203,-55 203,-67 203,-67 203,-73 197,-79 191,-79"/>
<text xml:space="preserve" text-anchor="middle" x="176" y="-56.55" font-family="Helvetica,sans-Serif" font-size="11.00">K</text>
</g>
<!-- Q&#45;&gt;K -->
<!-- op1 -->
<g id="node7" class="node">
<title>op1</title>
<ellipse fill="#ffecb3" stroke="black" cx="190" cy="-174.25" rx="43.09" ry="18"/>
<text xml:space="preserve" text-anchor="middle" x="190" y="-170.93" font-family="Helvetica,sans-Serif" font-size="11.00">S = Q × Kᵀ</text>
</g>
<!-- Q&#45;&gt;op1 -->
<g id="edge8" class="edge">
<title>Q&#45;&gt;op1</title>
<path fill="none" stroke="black" d="M71.88,-79.38C96.09,-98.63 135.2,-129.7 161.72,-150.78"/>
<polygon fill="black" stroke="black" points="159.34,-153.36 169.35,-156.84 163.7,-147.88 159.34,-153.36"/>
<text xml:space="preserve" text-anchor="middle" x="120.62" y="-103.75" font-family="Helvetica,sans-Serif" font-size="10.00">load</text>
</g>
<!-- S_hbm -->
<g id="node3" class="node">
<title>S_hbm</title>
<path fill="#a8d5ba" stroke="black" d="M317,-79C317,-79 287,-79 287,-79 281,-79 275,-73 275,-67 275,-67 275,-55 275,-55 275,-49 281,-43 287,-43 287,-43 317,-43 317,-43 323,-43 329,-49 329,-55 329,-55 329,-67 329,-67 329,-73 323,-79 317,-79"/>
<text xml:space="preserve" text-anchor="middle" x="302" y="-56.55" font-family="Helvetica,sans-Serif" font-size="11.00">S</text>
</g>
<!-- K&#45;&gt;S_hbm -->
<!-- K&#45;&gt;op1 -->
<g id="edge9" class="edge">
<title>K&#45;&gt;op1</title>
<path fill="none" stroke="black" d="M176.96,-79.12C177.62,-89.1 178.62,-101.91 180,-113.25 181.26,-123.53 183.02,-134.75 184.71,-144.67"/>
<polygon fill="black" stroke="black" points="181.26,-145.25 186.45,-154.49 188.16,-144.03 181.26,-145.25"/>
<text xml:space="preserve" text-anchor="middle" x="189" y="-103.75" font-family="Helvetica,sans-Serif" font-size="10.00">load</text>
</g>
<!-- P_hbm -->
<g id="node4" class="node">
<title>P_hbm</title>
<path fill="#a8d5ba" stroke="black" d="M443,-79C443,-79 413,-79 413,-79 407,-79 401,-73 401,-67 401,-67 401,-55 401,-55 401,-49 407,-43 413,-43 413,-43 443,-43 443,-43 449,-43 455,-49 455,-55 455,-55 455,-67 455,-67 455,-73 449,-79 443,-79"/>
<text xml:space="preserve" text-anchor="middle" x="428" y="-56.55" font-family="Helvetica,sans-Serif" font-size="11.00">P</text>
</g>
<!-- S_hbm&#45;&gt;P_hbm -->
<!-- op2 -->
<g id="node8" class="node">
<title>op2</title>
<ellipse fill="#ffecb3" stroke="black" cx="358" cy="-174.25" rx="53.37" ry="18"/>
<text xml:space="preserve" text-anchor="middle" x="358" y="-169.8" font-family="Helvetica,sans-Serif" font-size="11.00">P = softmax(S)</text>
</g>
<!-- S_hbm&#45;&gt;op2 -->
<g id="edge11" class="edge">
<title>S_hbm&#45;&gt;op2</title>
<path fill="none" stroke="black" d="M302.48,-79.24C303.29,-89.49 305.28,-102.54 310,-113.25 315.61,-126 324.63,-138.33 333.35,-148.46"/>
<polygon fill="black" stroke="black" points="330.52,-150.55 339.82,-155.63 335.72,-145.86 330.52,-150.55"/>
<text xml:space="preserve" text-anchor="middle" x="319" y="-103.75" font-family="Helvetica,sans-Serif" font-size="10.00">load</text>
</g>
<!-- V -->
<g id="node5" class="node">
<title>V</title>
<path fill="#a8d5ba" stroke="black" d="M569,-79C569,-79 539,-79 539,-79 533,-79 527,-73 527,-67 527,-67 527,-55 527,-55 527,-49 533,-43 539,-43 539,-43 569,-43 569,-43 575,-43 581,-49 581,-55 581,-55 581,-67 581,-67 581,-73 575,-79 569,-79"/>
<text xml:space="preserve" text-anchor="middle" x="554" y="-56.55" font-family="Helvetica,sans-Serif" font-size="11.00">V</text>
</g>
<!-- P_hbm&#45;&gt;V -->
<!-- op3 -->
<g id="node9" class="node">
<title>op3</title>
<ellipse fill="#ffecb3" stroke="black" cx="522" cy="-174.25" rx="38.94" ry="18"/>
<text xml:space="preserve" text-anchor="middle" x="522" y="-169.8" font-family="Helvetica,sans-Serif" font-size="11.00">O = P × V</text>
</g>
<!-- P_hbm&#45;&gt;op3 -->
<g id="edge13" class="edge">
<title>P_hbm&#45;&gt;op3</title>
<path fill="none" stroke="black" d="M442.69,-79.38C458.34,-97.91 483.26,-127.4 500.99,-148.38"/>
<polygon fill="black" stroke="black" points="498.23,-150.54 507.35,-155.92 503.57,-146.02 498.23,-150.54"/>
<text xml:space="preserve" text-anchor="middle" x="478.37" y="-103.75" font-family="Helvetica,sans-Serif" font-size="10.00">load</text>
</g>
<!-- O -->
<g id="node6" class="node">
<title>O</title>
<path fill="#a8d5ba" stroke="black" d="M695,-79C695,-79 665,-79 665,-79 659,-79 653,-73 653,-67 653,-67 653,-55 653,-55 653,-49 659,-43 665,-43 665,-43 695,-43 695,-43 701,-43 707,-49 707,-55 707,-55 707,-67 707,-67 707,-73 701,-79 695,-79"/>
<text xml:space="preserve" text-anchor="middle" x="680" y="-56.55" font-family="Helvetica,sans-Serif" font-size="11.00">O</text>
</g>
<!-- V&#45;&gt;O -->
<!-- V&#45;&gt;op3 -->
<g id="edge14" class="edge">
<title>V&#45;&gt;op3</title>
<path fill="none" stroke="black" d="M549,-79.38C543.95,-96.94 536.07,-124.34 530.12,-145.01"/>
<polygon fill="black" stroke="black" points="526.78,-143.96 527.38,-154.53 533.51,-145.89 526.78,-143.96"/>
<text xml:space="preserve" text-anchor="middle" x="550.81" y="-103.75" font-family="Helvetica,sans-Serif" font-size="10.00">load</text>
</g>
<!-- op1&#45;&gt;S_hbm -->
<g id="edge10" class="edge">
<title>op1&#45;&gt;S_hbm</title>
<path fill="none" stroke="black" d="M205.93,-157.43C224.28,-139.2 254.68,-109 276.37,-87.46"/>
<polygon fill="black" stroke="black" points="278.8,-89.98 283.43,-80.45 273.86,-85.01 278.8,-89.98"/>
<text xml:space="preserve" text-anchor="middle" x="270.2" y="-103.75" font-family="Helvetica,sans-Serif" font-size="10.00">store</text>
</g>
<!-- op1&#45;&gt;op2 -->
<!-- op2&#45;&gt;P_hbm -->
<g id="edge12" class="edge">
<title>op2&#45;&gt;P_hbm</title>
<path fill="none" stroke="black" d="M357.66,-155.8C358.15,-140.49 360.86,-118.2 371.25,-102 376.34,-94.07 383.62,-87.25 391.27,-81.6"/>
<polygon fill="black" stroke="black" points="393.05,-84.62 399.41,-76.14 389.15,-78.8 393.05,-84.62"/>
<text xml:space="preserve" text-anchor="middle" x="382.12" y="-103.75" font-family="Helvetica,sans-Serif" font-size="10.00">store</text>
</g>
<!-- op2&#45;&gt;op3 -->
<!-- op3&#45;&gt;O -->
<g id="edge15" class="edge">
<title>op3&#45;&gt;O</title>
<path fill="none" stroke="black" d="M542.49,-158.82C568.73,-140.35 614.55,-108.08 646.04,-85.91"/>
<polygon fill="black" stroke="black" points="647.91,-88.87 654.07,-80.25 643.88,-83.15 647.91,-88.87"/>
<text xml:space="preserve" text-anchor="middle" x="630.67" y="-103.75" font-family="Helvetica,sans-Serif" font-size="10.00">store</text>
</g>
</g>
</svg>
